<?xml version="1.0" standalone="no"?><!-- Generator: Gravit.io --><svg xmlns="http://www.w3.org/2000/svg" xmlns:xlink="http://www.w3.org/1999/xlink" style="isolation:isolate" viewBox="4570 4473 481.595 481.956" width="481.595" height="481.956"><g style="isolation:isolate"/><g><path d=" M 4710 4580 Q 4691.604 4597.122 4690 4640 Q 4690.617 4741.443 4690 4800 C 4689.898 4809.658 4673.061 4818.25 4670 4820 C 4666.939 4821.75 4610.581 4849.637 4610 4850 Q 4558.466 4882.232 4580 4930 Q 4591.861 4962.459 4640 4950 C 4678.073 4940.146 4739.283 4886.478 4740 4830 Q 4741.009 4750.495 4740 4690 Q 4741.713 4739.775 4770 4740 C 4797.68 4740.22 4815.081 4735.838 4830.441 4714 Q 4845.682 4692.331 4790 4640 Q 4800.489 4628.331 4828.781 4615.595 Q 4861.161 4601.018 4909.626 4630.197 L 4959.377 4621.436 Q 4967.309 4617.832 4974.924 4618.515 C 4982.539 4619.198 4999.365 4624.502 4999.8 4636.038 Q 5000.234 4647.574 5000 4700 Q 4998.766 4724.857 4970 4740 C 4940.472 4755.544 4895.861 4759.359 4880 4800 Q 4862.599 4844.586 4900 4860 Q 4941.556 4867.183 4980 4850 C 5010.148 4836.525 5028.039 4825.849 5040 4790 C 5042.843 4781.479 5044.863 4772.856 5046.302 4764.641 C 5049.701 4745.247 5049.867 4728.127 5050 4720 Q 5050.19 4708.43 5050 4530 Q 5049.848 4531.202 5050 4530 C 5049.811 4528.97 5050.092 4520.565 5050 4520 C 5045.438 4494.586 5020.637 4489.534 4999.8 4490.014 C 4970.402 4490.691 4741.88 4550.327 4710 4580 Z  M 4854.097 4636.038 Q 4843.156 4639.429 4841.659 4647.72 Q 4840.163 4656.011 4847.878 4659.402 Q 4856.328 4663.239 4863.425 4659.402 Q 4870.523 4655.565 4869.644 4644.8 Q 4864.36 4634.804 4854.097 4636.038 Z " fill-rule="evenodd" fill="rgb(46,46,46)" vector-effect="non-scaling-stroke" stroke-width="1" stroke="rgb(46,46,46)" stroke-linejoin="miter" stroke-linecap="square" stroke-miterlimit="3"/></g></svg>